<?xml version="1.0" standalone="no"?>
<!DOCTYPE svg PUBLIC "-//W3C//DTD SVG 20010904//EN"
 "http://www.w3.org/TR/2001/REC-SVG-20010904/DTD/svg10.dtd">
<svg version="1.0" xmlns="http://www.w3.org/2000/svg"
 width="332.000000pt" height="332.000000pt" viewBox="0 0 332.000000 332.000000"
 preserveAspectRatio="xMidYMid meet">
<metadata>
Created by potrace 1.14, written by Peter Selinger 2001-2017
</metadata>
<g transform="translate(0.000000,332.000000) scale(0.100000,-0.100000)"
fill="#000000" stroke="none">
<path d="M2210 2537 l0 -47 -97 0 c-54 -1 -393 -2 -755 -4 l-656 -4 4 39 c5
44 3 46 -31 23 -15 -10 -25 -12 -25 -5 0 6 5 11 12 11 6 0 9 3 6 6 -4 3 -18
-2 -32 -11 -14 -9 -27 -16 -30 -16 -36 5 -58 -2 -66 -21 -5 -13 -9 -17 -9 -9
-1 10 -4 11 -14 2 -10 -8 -17 -7 -27 2 -10 9 -11 9 -6 0 4 -7 2 -13 -3 -13 -6
0 -11 5 -11 11 0 8 -4 8 -14 0 -11 -10 -17 -8 -26 6 -9 14 -10 15 -6 2 6 -22
-15 -26 -157 -28 -61 -2 -118 -3 -125 -3 -11 -1 -15 -11 -27 -71 -2 -9 2 -23
9 -30 6 -6 12 -23 13 -36 1 -14 7 -37 14 -53 8 -20 8 -36 1 -55 -15 -40 -2
-142 22 -173 36 -46 38 -61 32 -351 -3 -156 -6 -310 -6 -342 0 -40 -4 -57 -12
-56 -32 4 -59 -2 -53 -11 17 -28 15 -64 -6 -86 l-22 -23 41 -41 c31 -31 40
-47 38 -70 -1 -17 1 -30 4 -30 4 0 7 -6 7 -12 1 -7 2 -34 4 -60 2 -37 6 -48
19 -48 10 0 22 -16 31 -42 l16 -43 149 -1 c183 -1 174 0 174 -25 0 -11 4 -17
10 -14 5 3 19 -5 31 -19 21 -24 50 -29 57 -8 2 7 -1 12 -6 12 -6 0 -9 8 -7 18
2 9 4 22 4 28 1 8 71 12 243 13 530 2 757 6 764 13 10 10 -15 67 -48 109 -15
20 -28 44 -28 52 0 8 -7 20 -15 27 -14 12 -15 63 -2 77 10 9 8 47 -2 58 -15
16 -23 73 -12 80 6 3 11 15 11 25 0 15 -10 20 -52 25 -63 8 -568 12 -568 5 0
-6 -168 -3 -186 4 -7 3 -15 2 -18 -2 -2 -4 -23 -6 -46 -4 l-42 4 7 327 c5 179
8 334 7 343 0 10 3 20 7 23 13 7 1501 8 1509 1 3 -4 7 -44 8 -89 4 -147 16
-900 16 -981 0 -63 4 -82 19 -97 11 -11 19 -16 19 -13 0 4 6 1 13 -5 8 -6 17
-8 20 -4 4 3 7 -1 7 -9 0 -18 33 -42 73 -52 16 -4 43 -21 61 -37 45 -43 91
-58 136 -42 19 6 47 12 61 12 14 1 36 12 48 25 l23 25 -6 433 c-3 238 -9 524
-12 636 l-6 202 23 1 c13 0 129 1 257 1 193 0 232 2 233 14 1 8 2 18 3 24 0 5
10 16 21 25 14 12 16 18 7 21 -6 3 -10 10 -6 15 3 5 2 15 -2 21 -5 7 -10 31
-12 53 -2 22 -8 42 -13 46 -5 3 -3 17 5 35 17 34 28 106 15 98 -9 -5 -14 39
-10 80 1 11 -4 23 -11 27 -10 7 -168 8 -720 9 -95 0 -110 2 -128 20 -11 11
-25 20 -31 20 -6 0 -17 7 -25 15 -9 8 -25 15 -38 15 -12 0 -27 5 -34 12 -9 9
-12 2 -12 -35z"/>
</g>
</svg>
